<svg xmlns="http://www.w3.org/2000/svg" xmlns:xlink="http://www.w3.org/1999/xlink" width="27" height="27" viewBox="0 0 27 27">
  <defs>
    <clipPath id="clip-Artboard_1">
      <rect width="27" height="27"/>
    </clipPath>
  </defs>
  <g id="Artboard_1" data-name="Artboard – 1" clip-path="url(#clip-Artboard_1)">
    <rect width="27" height="27" fill="#fff"/>
    <g id="star" transform="translate(5.457 -4.831)">
      <path id="Path_5" data-name="Path 5" d="M15.522,16.619a.434.434,0,0,0-.348-.293l-4.849-.689L8.143,11.25a.432.432,0,0,0-.386-.239h0a.43.43,0,0,0-.386.242l-2.153,4.4-4.849.721a.434.434,0,0,0-.348.293.426.426,0,0,0,.112.44l3.519,3.41-.813,4.83a.433.433,0,0,0,.424.5.409.409,0,0,0,.2-.051l4.329-2.294,4.342,2.268a.44.44,0,0,0,.2.048h0a.433.433,0,0,0,.431-.431.337.337,0,0,0-.013-.1l-.839-4.8,3.5-3.429A.422.422,0,0,0,15.522,16.619Zm-4.371,3.417a.426.426,0,0,0-.121.383l.731,4.189L7.99,22.639a.436.436,0,0,0-.4,0L3.83,24.63l.705-4.2a.43.43,0,0,0-.124-.38l-3.05-2.96,4.208-.625a.427.427,0,0,0,.322-.236L7.76,12.415l1.895,3.809a.438.438,0,0,0,.325.236l4.211.6Z" transform="translate(0 0)"/>
    </g>
  </g>
</svg>
